<?xml version="1.0" standalone="no"?>
<!DOCTYPE svg PUBLIC "-//W3C//DTD SVG 20010904//EN"
 "http://www.w3.org/TR/2001/REC-SVG-20010904/DTD/svg10.dtd">
<svg version="1.0" xmlns="http://www.w3.org/2000/svg"
 width="112.000000pt" height="112.000000pt" viewBox="0 0 112.000000 112.000000"
 preserveAspectRatio="xMidYMid meet">
<metadata>
Created by potrace 1.14, written by Peter Selinger 2001-2017
</metadata>
<g transform="translate(0.000000,112.000000) scale(0.100000,-0.100000)"
fill="#000000" stroke="none">
<path d="M430 1101 c0 -14 -10 -21 -36 -26 -20 -3 -55 -15 -78 -27 l-42 -20
-104 35 c-134 45 -174 54 -168 36 6 -19 125 -76 175 -84 52 -8 59 -17 31 -41
-20 -18 -98 -172 -98 -194 0 -14 -15 -13 -28 3 -11 13 -53 125 -55 145 0 6 -4
12 -8 12 -4 0 -10 8 -12 18 -3 9 -5 -14 -6 -52 -1 -55 4 -78 25 -120 14 -28
34 -60 45 -72 10 -11 19 -30 19 -41 0 -11 29 -78 65 -148 61 -121 101 -175
128 -175 7 0 -3 12 -20 26 -22 17 -53 66 -93 147 -39 78 -51 111 -36 92 14
-16 37 -59 51 -95 14 -36 32 -76 41 -88 l15 -22 26 32 c15 18 42 50 62 71 35
37 35 37 11 38 -23 1 -23 1 5 11 17 6 44 20 60 31 l30 21 -23 -26 -24 -26 49
15 c26 9 56 20 65 24 13 6 24 2 42 -16 14 -14 32 -25 41 -25 9 0 13 -5 10 -10
-4 -7 2 -9 19 -4 19 4 28 2 32 -11 5 -12 -4 -27 -29 -49 -57 -49 -83 -136 -41
-136 17 0 18 17 2 23 -21 6 17 76 48 87 30 12 100 12 129 1 16 -7 9 -13 -43
-36 -34 -15 -62 -32 -62 -36 0 -13 3 -12 95 33 47 23 85 47 85 54 0 24 -50 47
-103 49 -51 2 -52 3 -51 31 1 16 5 46 9 68 5 25 4 40 -3 45 -8 5 -1 20 19 44
l31 38 -28 -6 c-16 -3 -22 -2 -14 1 8 4 25 16 38 27 23 21 31 11 10 -12 -15
-16 -9 -14 55 19 26 13 47 29 47 34 0 19 -48 115 -77 154 l-27 37 27 -24 c27
-25 87 -133 87 -158 0 -7 4 -13 10 -13 5 0 1 24 -11 53 -11 28 -24 68 -28 87
-14 63 -85 170 -114 170 -6 0 5 -17 25 -37 20 -21 41 -49 48 -63 14 -29 9 -24
-49 48 -28 33 -50 52 -64 52 -19 0 -18 -4 16 -35 46 -42 48 -58 6 -43 -18 6
-40 25 -51 44 l-20 34 -94 0 c-85 0 -94 -2 -94 -19z m-180 -81 c13 -8 13 -10
-2 -10 -9 0 -20 5 -23 10 -8 13 5 13 25 0z m367 -66 c4 -10 -4 -24 -23 -40
-16 -13 -21 -21 -11 -18 20 7 20 6 7 -33 -9 -24 -7 -41 10 -84 11 -30 20 -60
20 -67 0 -24 -38 6 -64 51 -21 36 -23 48 -16 87 23 123 21 120 47 120 13 0 26
-7 30 -16z m-257 -119 c56 -12 70 -19 102 -56 40 -47 72 -115 57 -125 -5 -3
-30 17 -54 44 -24 27 -58 55 -75 62 -36 15 -38 23 -7 38 12 6 16 11 9 11 -8 1
-25 -8 -39 -19 -56 -44 -120 -7 -97 55 4 10 13 14 23 10 9 -4 45 -12 81 -20z
m-153 -97 c-3 -8 -6 -5 -6 6 -1 11 2 17 5 13 3 -3 4 -12 1 -19z m419 -93 c-11
-8 -25 -15 -30 -15 -6 1 0 7 14 15 32 19 40 18 16 0z m-46 -19 c0 -2 -9 -6
-20 -9 -11 -3 -18 -1 -14 4 5 9 34 13 34 5z m80 -13 c0 -36 -16 -48 -46 -34
l-27 12 29 19 c37 24 44 24 44 3z m70 -119 c0 -14 -3 -14 -15 -4 -8 7 -15 14
-15 16 0 2 7 4 15 4 8 0 15 -7 15 -16z"/>
<path d="M860 792 c0 -17 43 -102 52 -102 4 0 -3 23 -16 51 -26 54 -36 69 -36
51z"/>
<path d="M770 753 c-29 -21 -60 -49 -69 -62 l-15 -23 44 6 c25 3 69 9 98 12
44 5 52 9 46 23 -3 9 -10 31 -16 49 -5 17 -15 32 -22 32 -7 0 -37 -17 -66 -37z"/>
<path d="M788 667 c-29 -13 -27 -24 7 -43 11 -6 26 -23 34 -39 11 -23 11 -29
0 -36 -13 -8 -6 -13 13 -10 4 0 11 -18 16 -42 l9 -42 22 73 c18 56 21 80 14
110 -8 34 -11 37 -48 39 -22 2 -52 -3 -67 -10z"/>
<path d="M918 624 c5 -58 -5 -93 -60 -213 -43 -95 -62 -117 -121 -140 -28 -11
-44 -20 -34 -20 30 -1 88 27 116 58 l28 30 31 -22 c42 -31 202 -97 235 -97 4
0 7 16 7 35 0 43 -27 63 -99 72 -28 3 -51 9 -51 13 0 3 -22 17 -50 30 -27 13
-48 25 -46 27 6 6 77 -25 96 -41 8 -8 38 -16 65 -19 28 -2 59 -8 70 -11 13 -5
12 -2 -5 8 -14 8 -42 15 -63 16 -23 0 -51 9 -68 20 -15 12 -42 26 -59 31 -16
6 -30 14 -30 17 0 4 11 34 25 67 25 60 35 178 17 189 -5 3 -7 -20 -4 -50z"/>
<path d="M800 590 c0 -5 5 -10 11 -10 5 0 7 5 4 10 -3 6 -8 10 -11 10 -2 0 -4
-4 -4 -10z"/>
<path d="M389 542 c-24 -16 -66 -53 -92 -82 l-49 -54 31 -28 c17 -15 28 -28
23 -28 -10 0 -8 -57 2 -80 4 -11 -12 -24 -61 -50 -67 -35 -254 -203 -240 -216
3 -3 21 11 39 32 62 72 113 115 188 160 41 24 79 44 85 44 5 0 -9 -11 -32 -24
-23 -14 -59 -37 -80 -52 -47 -34 -163 -146 -163 -156 0 -13 348 -10 373 3 12
6 39 27 59 47 25 24 42 33 54 28 17 -6 17 -6 2 11 -16 17 -15 20 3 43 11 14
31 42 45 63 15 23 32 37 45 37 39 0 9 17 -41 24 -57 8 -83 29 -112 95 -13 28
-18 54 -14 75 l5 31 -19 -37 c-11 -21 -27 -61 -35 -90 -7 -29 -14 -43 -14 -32
-1 35 37 149 60 178 11 14 19 32 16 39 -2 6 0 20 5 30 14 28 -31 22 -83 -11z
m-65 -252 c4 -25 3 -31 -4 -20 -5 8 -10 26 -10 39 0 32 6 24 14 -19z m63 -42
c-3 -7 -5 -2 -5 12 0 14 2 19 5 13 2 -7 2 -19 0 -25z"/>
<path d="M560 480 c0 -5 5 -10 11 -10 5 0 7 5 4 10 -3 6 -8 10 -11 10 -2 0 -4
-4 -4 -10z"/>
<path d="M525 460 c-3 -5 -1 -10 4 -10 6 0 11 5 11 10 0 6 -2 10 -4 10 -3 0
-8 -4 -11 -10z"/>
<path d="M460 410 c0 -5 5 -10 10 -10 6 0 10 5 10 10 0 6 -4 10 -10 10 -5 0
-10 -4 -10 -10z"/>
<path d="M865 237 c4 -15 11 -51 16 -80 8 -51 8 -51 5 16 -2 38 -9 74 -16 80
-9 9 -10 6 -5 -16z"/>
<path d="M987 144 c-61 -59 -86 -104 -56 -104 6 0 8 7 5 16 -4 10 16 36 62 79
37 35 65 66 62 68 -3 3 -36 -23 -73 -59z"/>
<path d="M622 179 c6 -19 115 -76 156 -83 55 -8 50 0 -10 18 -29 8 -75 29
-101 46 -27 17 -47 25 -45 19z"/>
<path d="M725 15 c-37 -16 -20 -19 24 -4 24 8 39 9 57 0 13 -6 24 -7 24 -2 0
23 -60 27 -105 6z"/>
</g>
</svg>
